<svg width="3600" height="800" version="1.1" viewBox="0 0 1308 290.66" xml:space="preserve" xmlns="http://www.w3.org/2000/svg"><g fill="#a00">

<path d="m0.4059 149.31c-0.057993 6e-3 -0.11872 0.0104-0.17811 0.0156-0.080388 7e-3 -0.15047 0.01-0.22779 0.0154v1.3201c2.1608 0.0597 4.3462 0.0922 6.5214 0.13548 1.9146 0.0352 3.8408 0.0114 5.7599 0.0169 0.6851 2e-3 1.3688 0.0108 2.0536 0.0144 1.4402 8e-3 2.8811 0.011 4.3216 0.0172 2.9234 0.0168 5.8464-0.0117 8.7694-0.0105 0.7164 3.2e-4 3.7478 0.012 4.4422 0.0145 2.8405 5e-3 5.6775-0.0212 8.5154-0.0339 1.3912-6e-3 2.5505-5e-3 3.9419-5e-3 4.3306-8e-3 8.6568 0.0328 12.982 0.0643 0.82007 8.8e-4 1.6402 4e-3 2.4602 3e-3 0.45752-8.8e-4 4.1859-0.0201 4.6806-0.0218 2.2349-8e-3 4.4714-8e-3 6.7066-0.014 0.70371-4e-3 1.4078-6e-3 2.1111-0.0119 0.65625-5e-3 1.3108-0.0145 1.967-0.0196 2.4365-0.019 4.8842-0.0221 7.3232-0.0255 1.6564-8e-3 3.3166-0.0241 4.9744-0.0224 0.5615 4.4e-4 1.1219 7e-3 1.6832 9e-3 1.1548 5e-3 2.3101 6e-3 3.465 9e-3 2.8315-7e-3 5.6304 0.072 8.4494 0.0983 1.9475 0.0182 3.1744 0.013 5.1227 0.012 0.81844-5e-3 1.6372-8e-3 2.4553-0.014 1.486-0.0112 2.9708-0.0274 4.4564-0.0402 1.9111-0.0164 3.8174-0.0289 5.7245-0.0547 2.0637-0.0312 4.1381-0.0305 6.2084-0.0343 0.4924-8.7e-4 0.98515-6e-3 1.4774-4e-3 0.53509 2e-3 1.0682 0.0113 1.6023 0.017 0.52248-2e-3 1.045-6e-3 1.5675-5e-3 1.7046 3e-3 3.4095 0.023 5.1142 0.0278 1.1885 4e-3 2.3778 1e-3 3.5665 3e-3 3.7532-0.0125 7.4841 0.055 11.226 0.0881 1.8461 0.0183 3.7052 0.0101 5.5506 0.0295 0.63319 7e-3 1.2622 0.0209 1.894 0.0305 1.617 0.0243 2.2159 0.0306 3.8355 0.0505 2.9978 0.0406 6.0163 0.0282 9.0128 0.0706 0.66446 9e-3 1.3255 0.024 1.9883 0.036 3.8804 0.0336 7.7742 0.0164 11.655-8e-3 2.0112-0.0171 4.0211-0.0379 6.0346-0.0467 0.4506-2e-3 0.90111-7e-3 1.3518-5e-3 0.48074 1e-3 0.96042 8e-3 1.4405 0.0124 2.0685 0.0106 4.1397 0.0271 6.2098 0.0179 0.96888-4e-3 1.9367-0.014 2.9052-0.0202 2.7001-4e-3 5.4149-0.0257 8.1123-4e-3 1.4973 0.0142 2.9989 0.0217 4.499 0.016 1.473-6e-3 1.3724-0.0155 2.8328-0.0149 0.48176 1.6e-4 0.96318 4e-3 1.4448 6e-3 1.2223 0.0154 2.1781 0.0251 3.4069 0.0508 0.72302 0.0151 1.4381 0.0395 2.1629 0.0521h10.716c2.8117-0.0189 5.6236-0.0357 8.4295-0.0725 1.4407-0.01 2.8773-0.038 4.3187-0.0451 0.44587-2e-3 0.89237 2e-3 1.3383 1.2e-4 0.42176-2e-3 0.84266-0.0108 1.2645-0.0101 0.45613 4.4e-4 0.91007 9e-3 1.3653 0.0139 2.6782 0.0305 5.3578-0.012 7.9988-0.0812 0.79541-0.0169 1.2878-0.0301 2.0877-0.0367 0.3769-3e-3 0.75533 4.4e-4 1.1318-4e-3 1.1079-0.0123 2.2093-0.0491 3.3004-0.0803 2.0135-0.054 4.0328-0.10578 6.0615-0.14275 1.7169-0.0228 3.4403-0.0111 5.1568-0.0337 0.80384-0.0106 1.6212-0.028 2.4219-0.0437 0.69234-0.0151 1.3835-0.0139 2.07-2e-3 0.6864 0.0115 1.3678 0.0331 2.0423 0.0589 0.81154 0.0311 1.601 0.0765 2.4148 0.10607 1.9122 0.0695 3.004 0.0888 4.5536 0.11583v-1.5796h-1.2404c-0.13794 2e-3 -0.27602 4e-3 -0.41371 7e-3 -0.2843 5e-3 -0.56476 0.0166-0.85083 0.0185-0.23907 2e-3 -0.47734-5e-3 -0.716-8e-3 -0.83055-0.01-1.6622-0.018-2.4957-0.0122-0.57983 2e-5 -1.1595 5e-3 -1.7393 4e-3 -0.50114-1e-3 -1.0028-6e-3 -1.5044-9e-3h-0.70536c-0.47461-8.7e-4 -0.94928-2e-3 -1.4235 7e-3 -1.3213 3e-3 -2.641-3e-3 -3.9611-7e-3h-2.1288c-0.94931 9e-3 -1.9024 0.0213-2.8519 0.0192-0.77509-2e-3 -1.5499-0.0114-2.3247-0.0192h-11.32c-1.518 0.0126-3.036 0.0217-4.5564 3e-3 -0.38696 4.4e-4 -0.77396 1e-3 -1.1609 2e-3 -0.38244-8.8e-4 -0.76494-3e-3 -1.1474-3e-3 -1.404 8.7e-4 -2.8094 0.0113-4.213-1e-3h-5.0305c0.4549-1e-3 1.4932-5e-3 -1.4483 0.0199-0.34449 3e-3 -0.68967 1e-3 -1.0346 2e-3 -1.2314-4.3e-4 -2.4609-8e-3 -3.6879-0.0217h-46.896c-1.7268 5e-3 -3.4529 0.0133-5.1809 0.0133-1.2213-4.3e-4 -2.4414-8e-3 -3.6616-0.0133h-7.3303c-1.8881 0.0115-3.7752 0.0283-5.6599 0.0526-0.50346 7e-3 -1.0063 0.0157-1.5108 0.02-1.0687 9e-3 -1.7802 4e-3 -2.8505 4e-3 -1.507 4.3e-4 -3.014 1e-3 -4.521 4e-3 -1.4712 0.0111-2.942 0.024-4.4152 0.026-1.4537 2e-3 -1.4406-2e-3 -2.9101-7e-3 -0.52126-2e-3 -1.0427-2e-3 -1.564-4e-3 -1.6689-0.0105-3.3359-0.0179-5.0056-0.0238-0.59065-2e-3 -1.1811-8e-3 -1.7719-7e-3 -0.60891 8.7e-4 -1.2162 0.0111-1.8251 0.0116-0.58035 4.4e-4 -1.1599-6e-3 -1.74-9e-3 -3.7836-0.0192-7.5691-0.0326-11.351 5e-3 -1.7117 4e-3 -3.429 6e-3 -5.1248 0.0493-0.47266 0.0121-0.9319 0.036-1.405 0.0476-0.66786 0.0164-1.3532 8e-3 -2.0196 0.0273-2.5112-5e-3 0.81239-8.8e-4 -1.7272 4e-3 -1.186 3e-3 -2.3699-0.0189-3.5488-0.0362-0.75312-7e-3 -1.5079-0.0116-2.2601-0.0209-1.984-0.0246-3.9536-0.0746-5.9416-0.0922-3.0814-0.0277-0.76667-0.0117-3.9653-0.0203-2.8263-8e-3 -5.657-0.0283-8.4792 0.0119-3.2506 0.0356-6.4994 0.0765-9.7544 0.0998-0.5251 3e-3 -1.9081 0.0126-2.4468 0.011-1.7206-5e-3 -3.4366-0.0493-5.1617-0.0293-1.0302-2e-3 -1.7583-3e-3 -2.7895-9e-3 -2.1391-0.0137-4.272-0.0511-6.4149-0.0491-3.1027 0.015-6.1919 0.066-9.2959 0.0782-0.4123 6e-3 -0.82455 0.0111-1.2369 0.0167-0.37156 0.0105-0.7392 0.0258-1.1148 0.0316-0.2933 5e-3 -0.58955-1.6e-4 -0.88418-8.8e-4 -0.92385-2e-3 -1.8441-0.0131-2.7682-0.0134-1.8901 8.7e-4 -3.7866 0.0272-5.6727-6e-3 -2.3237-0.0258-4.6475-0.0203-6.9734-0.0375-2.7035-0.0152-5.4122-0.0213-8.1109 0.0159-2.0378 0.01-4.066 0.0373-6.0998 0.0582-0.5053 4.3e-4 -1.0105 4e-3 -1.5157 3e-3 -0.24578-4.4e-4 -0.49083-5e-3 -0.73658-6e-3 -0.75798-3e-3 -1.5081 0.01-2.2644 0.0149-0.65451-4.4e-4 -1.3001 4e-3 -1.9536 9e-3 -0.37743 3e-3 -0.75518 0.0106-1.1325 7e-3 -0.15388-1e-3 -0.3043-8e-3 -0.45628-0.0122-1.269-0.0367-2.5394-0.0722-3.8064-0.10959-1.2769-0.0439-2.5579-0.0847-3.8489-0.11583zm288.52 1.623c-0.87089-1e-3 -1.7392 5e-3 -2.8541 0.0304-2.1195 0.0478-4.1642 0.2013-6.3454 0.17296-0.85383-5e-3 -1.5273-0.01-2.3871-6e-3 -0.34301 2e-3 -0.68097 0.011-1.0218 0.0159h14.34v-0.20339c-0.58212-4e-3 -1.206-0.01-1.7315-0.0103zm-182.68 0.099c-1.9483-8.7e-4 -3.1752-6e-3 -5.1227 0.012-2.819 0.0264-5.6179 0.10524-8.4494 0.0983-0.55561 1e-3 -1.1112 3e-3 -1.6669 4e-3h28.529c-0.21764-3e-3 -0.43613-3e-3 -0.65356-6e-3 -1.9071-0.0258-3.8134-0.0383-5.7245-0.0547-1.4855-0.0128-2.9703-0.029-4.4564-0.0402-0.81805-6e-3 -1.6368-9e-3 -2.4553-0.014zm-46.483 0.0133c-0.82003-1e-3 -1.6402 2e-3 -2.4602 3e-3 -4.3249 0.0315-8.6512 0.0726-12.982 0.0644-1.3902-1.6e-4 -2.5519 1e-3 -3.9419-5e-3 -2.8377-0.0125-5.6744-0.0381-8.5147-0.0329-0.64779 3e-3 -3.7697 0.0152-4.4408 0.0157-2.9217 2e-3 -5.8441-0.0249-8.7659-5e-3 -1.4384 8e-3 -2.8774 0.0129-4.3152 0.0233-0.68287 5e-3 -1.3641 0.0151-2.0472 0.0189-1.3415 7e-3 -2.686 8e-3 -4.0271 0.0198h76.193c-0.63663-4e-3 -1.2737-6e-3 -1.9096-9e-3 -2.439-4e-3 -4.8867-6e-3 -7.3232-0.0254-0.65623-5e-3 -1.3108-0.0146-1.967-0.0196-0.70332-5e-3 -1.4074-8e-3 -2.1111-0.0119-2.2351-6e-3 -4.4717-6e-3 -6.7066-0.0139-0.49541-2e-3 -4.2224-0.0211-4.6806-0.0219zm78.656 0.0915c-1.1887 1e-3 -2.378-8.7e-4 -3.5665 3e-3 -0.44539 1e-3 -0.89079 5e-3 -1.3362 7e-3h9.3485c-1.482-1e-3 -2.964-2e-3 -4.4457-0.01z" stroke-width="1.4113"/><path d="m579.97 151.15c0.058-6e-3 0.11872-0.0102 0.17811-0.0154 0.0804-7e-3 0.15047-0.01 0.22779-0.0152v-1.3028c-2.1608-0.0589-4.3462-0.091-6.5214-0.13371-1.9146-0.0347-3.8408-0.0113-5.7599-0.0167-0.68511-2e-3 -1.3688-0.0106-2.0536-0.0143-1.4402-8e-3 -2.8811-0.0108-4.3216-0.0169-2.9234-0.0166-5.8464 0.0116-8.7694 0.0103-0.7164-3.2e-4 -3.7478-0.0118-4.4422-0.0143-2.8405-5e-3 -5.6775 0.0209-8.5154 0.0334-1.3912 6e-3 -2.5505 5e-3 -3.9419 5e-3 -4.3306 8e-3 -8.6568-0.0324-12.982-0.0634-0.82006-8.6e-4 -1.6402-4e-3 -2.4602-3e-3 -0.45752 8.7e-4 -4.1859 0.0199-4.6806 0.0215-2.2349 7e-3 -4.4714 8e-3 -6.7066 0.0138-0.70371 4e-3 -1.4078 6e-3 -2.1111 0.0117-0.65625 5e-3 -1.3108 0.0143-1.967 0.0194-2.4366 0.0188-4.8842 0.0218-7.3232 0.0251-1.6564 7e-3 -3.3166 0.0238-4.9744 0.0221-0.5615-4.3e-4 -1.1219-7e-3 -1.6832-9e-3 -1.1548-5e-3 -2.3101-6e-3 -3.465-9e-3 -2.8315 7e-3 -5.6304-0.071-8.4494-0.0971-1.9475-0.018-3.1744-0.0128-5.1227-0.0119-0.81844 5e-3 -1.6372 8e-3 -2.4553 0.0138-1.486 0.011-2.9708 0.027-4.4564 0.0397-1.9111 0.0163-3.8174 0.0285-5.7245 0.054-2.0637 0.0308-4.1381 0.0301-6.2084 0.0339-0.4924 8.6e-4 -0.98515 6e-3 -1.4774 4e-3 -0.53509-2e-3 -1.0682-0.0112-1.6023-0.0168-0.52248 2e-3 -1.045 5e-3 -1.5675 5e-3 -1.7046-3e-3 -3.4095-0.0227-5.1142-0.0275-1.1885-3e-3 -2.3778-1e-3 -3.5665-3e-3 -3.7532 0.0123-7.4841-0.0543-11.226-0.087-1.8461-0.018-3.7052-0.01-5.5506-0.0291-0.63319-7e-3 -1.2622-0.0206-1.894-0.03-1.617-0.024-2.2159-0.0302-3.8355-0.0499-2.9978-0.0401-6.0163-0.0278-9.0128-0.0697-0.66446-9e-3 -1.3255-0.0237-1.9883-0.0355-3.8804-0.0331-7.7742-0.0161-11.655 8e-3 -2.0112 0.0169-4.0211 0.0374-6.0346 0.0461-0.4506 2e-3 -0.90111 6e-3 -1.3518 5e-3 -0.48074-1e-3 -0.96042-8e-3 -1.4405-0.0122-2.0685-0.0105-4.1397-0.0267-6.2098-0.0177-0.96888 4e-3 -1.9367 0.0139-2.9052 0.02-2.7001 4e-3 -5.4149 0.0253-8.1123 4e-3 -1.4973-0.014-2.9989-0.0214-4.499-0.0158-1.473 5e-3 -1.3724 0.0153-2.8328 0.0147-0.48176-1.6e-4 -0.96318-4e-3 -1.4448-6e-3 -1.2223-0.0152-2.1781-0.0248-3.4069-0.0501-0.72302-0.0149-1.4381-0.039-2.1629-0.0514h-10.716c-2.8117 0.0186-5.6236 0.0353-8.4295 0.0715-1.4407 0.01-2.8773 0.0375-4.3187 0.0445-0.44587 2e-3 -0.89237-2e-3 -1.3383-1.1e-4 -0.42176 2e-3 -0.84266 0.0106-1.2645 0.01-0.45613-4.3e-4 -0.91007-9e-3 -1.3653-0.0137-2.6782-0.0301-5.3578 0.0119-7.9988 0.0801-0.79541 0.0167-1.2878 0.0297-2.0877 0.0362-0.3769 3e-3 -0.75533-4.4e-4 -1.1318 3e-3 -1.1079 0.0121-2.2093 0.0485-3.3004 0.0792-2.0135 0.0533-4.0328 0.10441-6.0615 0.14089-1.7169 0.0225-3.4403 0.011-5.1568 0.0333-0.80384 0.0105-1.6212 0.0276-2.4219 0.0432-0.69234 0.0149-1.3835 0.0136-2.07 2e-3 -0.6864-0.0113-1.3678-0.0326-2.0423-0.0582-0.81154-0.0307-1.601-0.0755-2.4148-0.10468-1.9122-0.0686-3.004-0.0876-4.5536-0.11433v1.559h1.2404c0.13794-2e-3 0.27602-4e-3 0.41371-7e-3 0.2843-5e-3 0.56476-0.0164 0.85083-0.0183 0.23907-2e-3 0.47734 5e-3 0.716 8e-3 0.83055 0.01 1.6622 0.0178 2.4957 0.012 0.57983-1e-5 1.1595-5e-3 1.7393-3e-3 0.50114 1e-3 1.0028 5e-3 1.5044 9e-3h0.70536c0.47461 8.6e-4 0.94928 2e-3 1.4235-7e-3 1.3213-3e-3 2.641 3e-3 3.9611 7e-3h2.1288c0.94931-9e-3 1.9024-0.021 2.8519-0.0189 0.77509 2e-3 1.5499 0.0113 2.3247 0.0189h11.32c1.518-0.0124 3.036-0.0214 4.5564-3e-3 0.38696-4.3e-4 0.77396-1e-3 1.1609-2e-3 0.38244 8.7e-4 0.76494 3e-3 1.1474 3e-3 1.404-8.7e-4 2.8094-0.0111 4.213 1e-3h5.0305c-0.4549 1e-3 -1.4932 5e-3 1.4483-0.0196 0.34449-3e-3 0.68967-1e-3 1.0346-2e-3 1.2314 4.3e-4 2.4609 8e-3 3.6879 0.0214h46.896c1.7268-5e-3 3.4529-0.0132 5.1809-0.0131 1.2213 4.3e-4 2.4414 8e-3 3.6616 0.0131h7.3303c1.8881-0.0114 3.7752-0.028 5.6599-0.0519 0.50346-7e-3 1.0063-0.0155 1.5108-0.0197 1.0687-9e-3 1.7802-3e-3 2.8505-4e-3 1.507-4.4e-4 3.014-1e-3 4.521-4e-3 1.4712-0.011 2.942-0.0237 4.4152-0.0257 1.4537-2e-3 1.4406 2e-3 2.9101 7e-3 0.52126 2e-3 1.0427 2e-3 1.564 3e-3 1.6689 0.0104 3.3359 0.0177 5.0056 0.0234 0.59065 2e-3 1.1811 8e-3 1.7719 7e-3 0.60891-8.7e-4 1.2162-0.011 1.8251-0.0114 0.58035-4.3e-4 1.1599 6e-3 1.74 9e-3 3.7836 0.0189 7.5691 0.0322 11.351-5e-3 1.7117-4e-3 3.429-6e-3 5.1248-0.0486 0.47266-0.0119 0.9319-0.0355 1.405-0.047 0.66786-0.0161 1.3532-8e-3 2.0196-0.0269 2.5112 5e-3 -0.81239 8.7e-4 1.7272-4e-3 1.186-3e-3 2.3699 0.0187 3.5488 0.0358 0.75312 7e-3 1.5079 0.0114 2.2601 0.0206 1.984 0.0243 3.9536 0.0737 5.9416 0.091 3.0814 0.0274 0.76667 0.0115 3.9653 0.0201 2.8263 8e-3 5.657 0.028 8.4792-0.0118 3.2506-0.0351 6.4994-0.0755 9.7544-0.0985 0.5251-3e-3 1.9081-0.0124 2.4468-0.0109 1.7206 5e-3 3.4366 0.0486 5.1617 0.0289 1.0302 2e-3 1.7583 3e-3 2.7895 9e-3 2.1391 0.0136 4.272 0.0505 6.4149 0.0484 3.1027-0.0148 6.1919-0.0652 9.296-0.0772 0.4123-5e-3 0.82455-0.011 1.2368-0.0165 0.37157-0.0104 0.73921-0.0255 1.1148-0.0312 0.2933-4e-3 0.58955 1.6e-4 0.88418 8.6e-4 0.92385 2e-3 1.8441 0.0129 2.7682 0.0132 1.8901-8.6e-4 3.7866-0.0268 5.6727 6e-3 2.3237 0.0255 4.6475 0.0201 6.9734 0.037 2.7035 0.015 5.4122 0.021 8.1109-0.0157 2.0378-0.01 4.066-0.0368 6.0998-0.0574 0.50531-4.3e-4 1.0105-4e-3 1.5157-3e-3 0.24578 4.3e-4 0.49083 5e-3 0.73658 6e-3 0.75798 3e-3 1.5081-0.01 2.2644-0.0147 0.65451 4.4e-4 1.3001-3e-3 1.9536-9e-3 0.37742-3e-3 0.75517-0.0104 1.1325-7e-3 0.15388 1e-3 0.3043 8e-3 0.45628 0.012 1.269 0.0362 2.5394 0.0713 3.8064 0.10816 1.277 0.0434 2.558 0.0836 3.849 0.11432zm-288.52-1.6019c0.87089 1e-3 1.7392-5e-3 2.8541-0.03 2.1195-0.0472 4.1642-0.19866 6.3454-0.1707 0.85383 4e-3 1.5273 0.01 2.3871 5e-3 0.34301-2e-3 0.68097-0.0108 1.0218-0.0157h-14.34v0.20074c0.58212 4e-3 1.206 9e-3 1.7315 0.0102zm182.68-0.0977c1.9483 8.6e-4 3.1752 6e-3 5.1227-0.0119 2.819-0.026 5.6179-0.10386 8.4494-0.0971 0.55561-1e-3 1.1112-3e-3 1.6669-4e-3h-28.529c0.21764 3e-3 0.43613 3e-3 0.65356 6e-3 1.9071 0.0255 3.8134 0.0378 5.7245 0.054 1.4855 0.0127 2.9703 0.0286 4.4564 0.0397 0.81805 6e-3 1.6368 9e-3 2.4553 0.0138zm46.483-0.0131c0.82003 1e-3 1.6402-2e-3 2.4602-3e-3 4.3249-0.0311 8.6512-0.0717 12.982-0.0635 1.3902 1.6e-4 2.5519-1e-3 3.9419 5e-3 2.8377 0.0123 5.6744 0.0376 8.5147 0.0325 0.6478-3e-3 3.7697-0.015 4.4408-0.0155 2.9217-2e-3 5.8441 0.0246 8.7659 5e-3 1.4384-8e-3 2.8774-0.0127 4.3152-0.023 0.68287-5e-3 1.3641-0.0149 2.0472-0.0186 1.3415-7e-3 2.686-8e-3 4.0271-0.0195h-76.193c0.63664 4e-3 1.2737 6e-3 1.9096 8e-3 2.439 3e-3 4.8867 6e-3 7.3232 0.0251 0.65623 5e-3 1.3108 0.0144 1.967 0.0194 0.70332 5e-3 1.4074 8e-3 2.1111 0.0118 2.2352 6e-3 4.4717 6e-3 6.7066 0.0137 0.49541 2e-3 4.2224 0.0209 4.6806 0.0216zm-78.656-0.0903c1.1887-1e-3 2.378 8.6e-4 3.5665-3e-3 0.44539-1e-3 0.89079-4e-3 1.3362-7e-3h-9.3485c1.482 1e-3 2.964 2e-3 4.4457 0.01z" stroke-width="1.4021"/><path d="m580.65 149.73c-0.058 6e-3 -0.11872 0.0104-0.17811 0.0156-0.0804 7e-3 -0.15047 0.01-0.22779 0.0154v1.3201c2.1608 0.0597 4.3462 0.0922 6.5214 0.13547 1.9146 0.0352 3.8408 0.0114 5.7599 0.0169 0.68511 2e-3 1.3688 0.0108 2.0536 0.0144 1.4402 8e-3 2.8811 0.011 4.3216 0.0172 2.9234 0.0168 5.8464-0.0117 8.7694-0.0105 0.7164 3.2e-4 3.7478 0.012 4.4422 0.0145 2.8405 5e-3 5.6775-0.0212 8.5154-0.0339 1.3912-6e-3 2.5505-5e-3 3.9419-5e-3 4.3306-8e-3 8.6568 0.0328 12.982 0.0643 0.82006 8.8e-4 1.6402 4e-3 2.4602 3e-3 0.45752-8.8e-4 4.1859-0.0201 4.6806-0.0218 2.2349-8e-3 4.4714-8e-3 6.7066-0.014 0.70371-4e-3 1.4078-6e-3 2.1111-0.0119 0.65625-5e-3 1.3108-0.0145 1.967-0.0196 2.4366-0.019 4.8842-0.0221 7.3232-0.0255 1.6564-8e-3 3.3166-0.0241 4.9744-0.0224 0.5615 4.4e-4 1.1219 7e-3 1.6832 9e-3 1.1548 5e-3 2.3101 6e-3 3.465 9e-3 2.8315-7e-3 5.6304 0.072 8.4494 0.0983 1.9475 0.0182 3.1744 0.013 5.1227 0.012 0.81844-5e-3 1.6372-8e-3 2.4553-0.014 1.486-0.0112 2.9708-0.0274 4.4564-0.0402 1.9111-0.0164 3.8174-0.0289 5.7245-0.0547 2.0637-0.0312 4.1381-0.0305 6.2084-0.0343 0.4924-8.7e-4 0.98515-6e-3 1.4774-4e-3 0.53509 2e-3 1.0682 0.0113 1.6023 0.017 0.52248-2e-3 1.045-6e-3 1.5675-5e-3 1.7046 3e-3 3.4095 0.023 5.1142 0.0278 1.1885 4e-3 2.3778 1e-3 3.5665 3e-3 3.7532-0.0125 7.4841 0.055 11.226 0.0881 1.8461 0.0183 3.7052 0.0101 5.5506 0.0295 0.63319 7e-3 1.2622 0.0209 1.894 0.0305 1.617 0.0243 2.2159 0.0306 3.8355 0.0505 2.9978 0.0406 6.0163 0.0282 9.0128 0.0706 0.66446 9e-3 1.3255 0.024 1.9883 0.036 3.8804 0.0336 7.7742 0.0164 11.655-8e-3 2.0112-0.0171 4.0211-0.0379 6.0346-0.0467 0.4506-2e-3 0.90111-7e-3 1.3518-5e-3 0.48074 1e-3 0.96042 8e-3 1.4405 0.0124 2.0685 0.0106 4.1397 0.0271 6.2098 0.0179 0.96888-4e-3 1.9367-0.014 2.9052-0.0202 2.7001-4e-3 5.4149-0.0257 8.1123-4e-3 1.4973 0.0142 2.9989 0.0217 4.499 0.016 1.473-6e-3 1.3724-0.0155 2.8328-0.0149 0.48176 1.6e-4 0.96318 4e-3 1.4448 6e-3 1.2223 0.0154 2.1781 0.0251 3.4069 0.0508 0.72302 0.0151 1.4381 0.0395 2.1629 0.0521h10.716c2.8117-0.0189 5.6236-0.0357 8.4295-0.0725 1.4407-0.01 2.8773-0.038 4.3187-0.0451 0.44587-2e-3 0.89237 2e-3 1.3383 1.1e-4 0.42176-2e-3 0.84266-0.0108 1.2645-0.0101 0.45613 4.3e-4 0.91007 9e-3 1.3653 0.0139 2.6782 0.0305 5.3578-0.012 7.9988-0.0812 0.79541-0.0169 1.2878-0.0301 2.0877-0.0367 0.3769-3e-3 0.75533 4.4e-4 1.1318-4e-3 1.1079-0.0123 2.2093-0.0491 3.3004-0.0803 2.0135-0.054 4.0328-0.10578 6.0615-0.14275 1.7169-0.0228 3.4403-0.0111 5.1568-0.0337 0.80384-0.0106 1.6212-0.028 2.4219-0.0437 0.69234-0.0151 1.3835-0.0139 2.07-2e-3 0.6864 0.0115 1.3678 0.0331 2.0423 0.0589 0.81154 0.0311 1.601 0.0765 2.4148 0.10607 1.9122 0.0695 3.004 0.0888 4.5536 0.11583v-1.5796h-1.2404c-0.13794 2e-3 -0.27602 4e-3 -0.41371 7e-3 -0.2843 5e-3 -0.56476 0.0166-0.85083 0.0185-0.23907 2e-3 -0.47734-5e-3 -0.716-8e-3 -0.83055-0.01-1.6622-0.018-2.4957-0.0122-0.57983 2e-5 -1.1595 5e-3 -1.7393 4e-3 -0.50114-1e-3 -1.0028-6e-3 -1.5044-9e-3h-0.70536c-0.47461-8.7e-4 -0.94928-2e-3 -1.4235 7e-3 -1.3213 3e-3 -2.641-3e-3 -3.9611-7e-3h-2.1288c-0.94931 9e-3 -1.9024 0.0213-2.8519 0.0192-0.77509-2e-3 -1.5499-0.0114-2.3247-0.0192h-11.32c-1.518 0.0126-3.036 0.0217-4.5564 3e-3 -0.38696 4.4e-4 -0.77396 1e-3 -1.1609 2e-3 -0.38244-8.8e-4 -0.76494-3e-3 -1.1474-3e-3 -1.404 8.7e-4 -2.8094 0.0113-4.213-1e-3h-5.0305c0.4549-1e-3 1.4932-5e-3 -1.4483 0.0199-0.34449 3e-3 -0.68967 1e-3 -1.0346 2e-3 -1.2314-4.3e-4 -2.4609-8e-3 -3.6879-0.0217h-46.896c-1.7268 5e-3 -3.4529 0.0133-5.1809 0.0133-1.2213-4.3e-4 -2.4414-8e-3 -3.6616-0.0133h-7.3303c-1.8881 0.0115-3.7752 0.0283-5.6599 0.0526-0.50346 7e-3 -1.0063 0.0157-1.5108 0.02-1.0687 9e-3 -1.7802 4e-3 -2.8505 4e-3 -1.507 4.3e-4 -3.014 1e-3 -4.521 4e-3 -1.4712 0.0111-2.942 0.024-4.4152 0.026-1.4537 2e-3 -1.4406-2e-3 -2.9101-7e-3 -0.52126-2e-3 -1.0427-2e-3 -1.564-4e-3 -1.6689-0.0105-3.3359-0.0179-5.0056-0.0238-0.59065-2e-3 -1.1811-8e-3 -1.7719-7e-3 -0.60891 8.7e-4 -1.2162 0.0111-1.8251 0.0116-0.58035 4.4e-4 -1.1599-6e-3 -1.74-9e-3 -3.7836-0.0192-7.5691-0.0326-11.351 5e-3 -1.7117 4e-3 -3.429 6e-3 -5.1248 0.0493-0.47266 0.0121-0.9319 0.036-1.405 0.0476-0.66786 0.0164-1.3532 8e-3 -2.0196 0.0273-2.5112-5e-3 0.81239-8.8e-4 -1.7272 4e-3 -1.186 3e-3 -2.3699-0.0189-3.5488-0.0362-0.75312-7e-3 -1.5079-0.0116-2.2601-0.0209-1.984-0.0246-3.9536-0.0746-5.9416-0.0922-3.0814-0.0277-0.76667-0.0117-3.9653-0.0203-2.8263-8e-3 -5.657-0.0283-8.4792 0.0119-3.2506 0.0356-6.4994 0.0765-9.7544 0.0998-0.5251 3e-3 -1.9081 0.0126-2.4468 0.011-1.7206-5e-3 -3.4366-0.0493-5.1617-0.0293-1.0302-2e-3 -1.7583-3e-3 -2.7895-9e-3 -2.1391-0.0137-4.272-0.0511-6.4149-0.0491-3.1027 0.015-6.1919 0.066-9.296 0.0782-0.4123 6e-3 -0.82455 0.0111-1.2368 0.0167-0.37157 0.0105-0.73921 0.0258-1.1148 0.0316-0.2933 5e-3 -0.58955-1.6e-4 -0.88418-8.8e-4 -0.92385-2e-3 -1.8441-0.0131-2.7682-0.0134-1.8901 8.7e-4 -3.7866 0.0272-5.6727-6e-3 -2.3237-0.0258-4.6475-0.0203-6.9734-0.0375-2.7035-0.0152-5.4122-0.0213-8.1109 0.0159-2.0378 0.01-4.066 0.0373-6.0998 0.0582-0.50531 4.3e-4 -1.0105 4e-3 -1.5157 3e-3 -0.24578-4.4e-4 -0.49083-5e-3 -0.73658-6e-3 -0.75798-3e-3 -1.5081 0.01-2.2644 0.0149-0.65451-4.4e-4 -1.3001 4e-3 -1.9536 9e-3 -0.37742 3e-3 -0.75517 0.0106-1.1325 7e-3 -0.15388-1e-3 -0.3043-8e-3 -0.45628-0.0122-1.269-0.0367-2.5394-0.0722-3.8064-0.10959-1.277-0.0439-2.558-0.0847-3.849-0.11583zm288.52 1.623c-0.87089-1e-3 -1.7392 5e-3 -2.8541 0.0304-2.1195 0.0478-4.1642 0.2013-6.3454 0.17296-0.85383-5e-3 -1.5273-0.01-2.3871-6e-3 -0.34301 2e-3 -0.68097 0.011-1.0218 0.0159h14.34v-0.20339c-0.58212-4e-3 -1.206-0.01-1.7315-0.0103zm-182.68 0.099c-1.9483-8.7e-4 -3.1752-6e-3 -5.1227 0.012-2.819 0.0264-5.6179 0.10524-8.4494 0.0983-0.55561 1e-3 -1.1112 3e-3 -1.6669 4e-3h28.529c-0.21764-3e-3 -0.43613-3e-3 -0.65356-6e-3 -1.9071-0.0258-3.8134-0.0383-5.7245-0.0547-1.4855-0.0128-2.9703-0.029-4.4564-0.0402-0.81805-6e-3 -1.6368-9e-3 -2.4553-0.014zm-46.483 0.0133c-0.82003-1e-3 -1.6402 2e-3 -2.4602 3e-3 -4.3249 0.0315-8.6512 0.0726-12.982 0.0644-1.3902-1.6e-4 -2.5519 1e-3 -3.9419-5e-3 -2.8377-0.0125-5.6744-0.0381-8.5147-0.0329-0.6478 3e-3 -3.7697 0.0152-4.4408 0.0157-2.9217 2e-3 -5.8441-0.0249-8.7659-5e-3 -1.4384 8e-3 -2.8774 0.0129-4.3152 0.0233-0.68287 5e-3 -1.3641 0.0151-2.0472 0.0189-1.3415 7e-3 -2.686 8e-3 -4.0271 0.0198h76.193c-0.63664-4e-3 -1.2737-6e-3 -1.9096-9e-3 -2.439-4e-3 -4.8867-6e-3 -7.3232-0.0254-0.65623-5e-3 -1.3108-0.0146-1.967-0.0196-0.70332-5e-3 -1.4074-8e-3 -2.1111-0.0119-2.2352-6e-3 -4.4717-6e-3 -6.7066-0.0139-0.49541-2e-3 -4.2224-0.0211-4.6806-0.0219zm78.656 0.0915c-1.1887 1e-3 -2.378-8.7e-4 -3.5665 3e-3 -0.44539 1e-3 -0.89079 5e-3 -1.3362 7e-3h9.3485c-1.482-1e-3 -2.964-2e-3 -4.4457-0.01z" stroke-width="1.4113"/><path d="m925.92 149.76c-2.8117 0.0186-5.6236 0.0355-8.4295 0.0717-1.4407 0.01-2.8772 0.037-4.3187 0.044-0.44587 2e-3 -0.89237-2e-3 -1.3383 0-0.42176 2e-3 -0.84266 0.0105-1.2645 0.01-0.45613-4.3e-4 -0.91007-9e-3 -1.3653-0.0135-2.6782-0.0301-5.3578 0.012-7.9988 0.0802-0.79541 0.0167-1.2878 0.0297-2.0877 0.0362-0.3769 3e-3 -0.75534-5.9e-4 -1.1318 3e-3 -1.1079 0.0121-2.2093 0.0488-3.3004 0.0795-2.0135 0.0533-4.0328 0.10402-6.0615 0.1405-1.7169 0.0225-3.4403 0.011-5.1568 0.0333-0.80384 0.0105-1.6212 0.0277-2.4219 0.0433-0.69234 0.0149-1.3835 0.0137-2.0699 2e-3 -0.6864-0.0113-1.3678-0.0326-2.0423-0.0582-0.81154-0.0307-1.601-0.0758-2.4148-0.10502-1.9122-0.0686-3.004-0.0875-4.5536-0.11425v1.559h1.2404c0.13794-2e-3 0.27602-4e-3 0.41371-7e-3 0.2843-5e-3 0.56476-0.0165 0.85083-0.0185 0.23907-2e-3 0.47734 6e-3 0.716 9e-3 0.83055 0.01 1.6622 0.0179 2.4957 0.0121 0.57983-1e-5 1.1595-6e-3 1.7393-4e-3 0.50114 9.9e-4 1.0028 5e-3 1.5044 9e-3h0.70536c0.47461 8.6e-4 0.94929 2e-3 1.4235-7e-3 1.3212-3e-3 2.641 3e-3 3.9611 7e-3h2.1288c0.94931-9e-3 1.9024-0.0213 2.8519-0.0192 0.77509 2e-3 1.5499 0.0116 2.3247 0.0192h11.32c1.518-0.0124 3.036-0.0212 4.5564-3e-3 0.38696-4.3e-4 0.77396-1e-3 1.1609-2e-3 0.38244 8.7e-4 0.76494 3e-3 1.1474 3e-3 1.404-8.7e-4 2.8094-0.0107 4.213 1e-3h5.0304c-0.4549 1e-3 -1.4932 5e-3 1.4483-0.0199 0.34449-3e-3 0.68967-1e-3 1.0346-2e-3 1.2314 4.3e-4 2.461 8e-3 3.6879 0.0213h46.896c1.7268-5e-3 3.4529-0.0129 5.1809-0.0128 1.2213 4.3e-4 2.4413 8e-3 3.6616 0.0128h7.3303c1.8881-0.0114 3.7752-0.0279 5.6599-0.0518 0.50346-7e-3 1.0063-0.0157 1.5108-0.0199 1.0687-9e-3 1.7802-3e-3 2.8505-4e-3 1.507-4.4e-4 3.014-1e-3 4.5209-4e-3 1.4713-0.011 2.942-0.0235 4.4152-0.0255 1.4537-2e-3 1.4406 2e-3 2.9102 7e-3 0.5212 2e-3 1.0426 2e-3 1.564 3e-3 1.6688 0.0104 3.3358 0.0177 5.0056 0.0234 0.5906 2e-3 1.1811 8e-3 1.7719 7e-3 0.6089-8.8e-4 1.2162-0.011 1.8251-0.0114 0.5804-4.3e-4 1.1599 6e-3 1.74 9e-3 3.7836 0.0189 7.5691 0.0322 11.351-5e-3 1.7116-4e-3 3.429-6e-3 5.1248-0.0482 0.4727-0.0119 0.9319-0.0353 1.405-0.0468 0.6679-0.0161 1.3532-8e-3 2.0196-0.027 2.5112 5e-3 -0.8124 6.1e-4 1.7272-4e-3 1.186-3e-3 2.3699 0.0191 3.5488 0.0362 0.7531 7e-3 1.5079 0.0114 2.2601 0.0206 1.984 0.0243 3.9536 0.0735 5.9416 0.0908 3.0814 0.0274 0.7667 0.0113 3.9653 0.0199 2.8264 8e-3 5.657 0.0284 8.4792-0.0114 3.2506-0.0351 6.4993-0.0756 9.7543-0.0986 0.5251-3e-3 1.9082-0.0129 2.4468-0.0114 1.7206 5e-3 3.4365 0.0488 5.1617 0.0291 1.0302 2e-3 1.7583 3e-3 2.7895 9e-3 2.1391 0.0136 4.2719 0.0504 6.4149 0.0483 3.1026-0.0148 6.1919-0.0654 9.296-0.0774 0.4123-5e-3 0.8245-0.0108 1.2368-0.0163 0.3715-0.0104 0.7392-0.0255 1.1148-0.0312 0.2933-4e-3 0.5895 1e-5 0.8842 7.1e-4 0.9238 2e-3 1.8441 0.0132 2.7682 0.0135 1.8901-8.6e-4 3.7866-0.0271 5.6727 6e-3 2.3237 0.0255 4.6474 0.02 6.9733 0.0369 2.7035 0.015 5.4122 0.0211 8.1109-0.0156 2.0377-0.01 4.0661-0.0369 6.0999-0.0575 0.5053-4.3e-4 1.0104-4e-3 1.5157-3e-3 0.2457 4.3e-4 0.4909 5e-3 0.7366 6e-3 0.758 3e-3 1.5082-0.0102 2.2644-0.0149 0.6545 4.4e-4 1.3001-3e-3 1.9535-9e-3 0.3774-3e-3 0.7553-0.0105 1.1326-7e-3 0.1539 1e-3 0.3042 8e-3 0.4562 0.0121 1.269 0.0362 2.5394 0.0717 3.8064 0.10857 1.2769 0.0434 2.558 0.0835 3.849 0.11425l6.9882 3e-3c0.023-4e-3 0.046-7e-3 0.069-0.0106 0.1573-0.0208 0.314-0.0421 0.469-0.0759 0.024-6e-3 0.049-0.0106 0.073-0.0156v-1.2312c-2.1608-0.0589-4.3461-0.0914-6.5213-0.13412-1.9145-0.0347-3.8409-0.0109-5.76-0.0163-0.6851-2e-3 -1.3688-0.0105-2.0536-0.0142-1.4402-8e-3 -2.881-0.0109-4.3215-0.017-2.9234-0.0166-5.8465 0.0119-8.7695 0.0106-0.7164-3.2e-4 -3.7477-0.0124-4.4421-0.0149-2.8404-5e-3 -5.6775 0.0208-8.5154 0.0334-1.3912 6e-3 -2.5506 5e-3 -3.9419 5e-3 -4.3306 8e-3 -8.6568-0.0322-12.982-0.0632-0.8201-8.6e-4 -1.6401-4e-3 -2.4602-3e-3 -0.4575 8.6e-4 -4.1859 0.0197-4.6806 0.0213-2.2349 7e-3 -4.4715 8e-3 -6.7066 0.0142-0.7038 4e-3 -1.4078 6e-3 -2.1111 0.0114-0.6563 5e-3 -1.3108 0.0141-1.967 0.0192-2.4365 0.0188-4.8843 0.0222-7.3233 0.0255-1.6564 7e-3 -3.3166 0.0237-4.9744 0.022-0.5615-4.3e-4 -1.1219-7e-3 -1.6832-9e-3 -1.1548-5e-3 -2.31-6e-3 -3.465-9e-3 -2.8314 7e-3 -5.6305-0.0711-8.4494-0.0972-1.9476-0.018-3.1744-0.013-5.1227-0.0121-0.8185 5e-3 -1.6372 8e-3 -2.4552 0.0135-1.486 0.011-2.9709 0.027-4.4564 0.0397-1.9111 0.0163-3.8175 0.0291-5.7245 0.0546-2.0638 0.0308-4.138 0.0296-6.2084 0.0334-0.4924 8.6e-4 -0.9851 6e-3 -1.4774 4e-3 -0.5351-2e-3 -1.0682-0.0114-1.6023-0.017-0.5225 2e-3 -1.045 5e-3 -1.5675 5e-3 -1.7046-3e-3 -3.4095-0.0222-5.1142-0.027-1.1885-3e-3 -2.378-2e-3 -3.5666-4e-3 -3.7531 0.0123-7.4841-0.0539-11.226-0.0866-1.8462-0.018-3.7053-0.01-5.5506-0.0291-0.6332-7e-3 -1.2623-0.0211-1.894-0.0305-1.617-0.024-2.2159-0.03-3.8355-0.0497-2.9978-0.0401-6.0163-0.0276-9.0128-0.0695-0.66446-9e-3 -1.3255-0.0237-1.9883-0.0355-3.8804-0.0331-7.7742-0.0163-11.655 8e-3 -2.0112 0.0169-4.0211 0.0374-6.0346 0.0461-0.4506 2e-3 -0.90111 6e-3 -1.3518 5e-3 -0.48074-1e-3 -0.96042-8e-3 -1.4405-0.0121-2.0685-0.0105-4.1397-0.0267-6.2098-0.0177-0.96888 4e-3 -1.9367 0.0138-2.9052 0.0199-2.7 4e-3 -5.4149 0.0256-8.1123 4e-3 -1.4973-0.014-2.9989-0.0212-4.499-0.0156-1.473 5e-3 -1.3723 0.0148-2.8328 0.0142-0.48176-1.6e-4 -0.96319-4e-3 -1.4448-6e-3 -1.2223-0.0152-2.1781-0.0251-3.4068-0.0504-0.72302-0.0149-1.4381-0.0387-2.1629-0.0511zm-55.956 7.1e-4v0.20082c0.58212 4e-3 1.206 9e-3 1.7315 0.01v7.1e-4c0.87089 1e-3 1.7392-6e-3 2.8541-0.0305 2.1195-0.0472 4.1642-0.19827 6.3454-0.17031 0.85383 4e-3 1.5273 0.01 2.3871 5e-3 0.34301-2e-3 0.68098-0.0107 1.0218-0.0156zm147.79 0c1.4821 1e-3 2.9641 2e-3 4.4457 0.01 1.1886-1e-3 2.3781 1e-3 3.5666-3e-3 0.4454-1e-3 0.8908-4e-3 1.3362-7e-3zm58.403 0c0.6366 4e-3 1.2736 6e-3 1.9095 8e-3 2.439 3e-3 4.8868 6e-3 7.3233 0.0248 0.6562 5e-3 1.3107 0.0149 1.967 0.0199 0.7033 5e-3 1.4073 8e-3 2.1111 0.0113 2.2351 6e-3 4.4717 6e-3 6.7066 0.0142 0.4954 2e-3 4.2224 0.0206 4.6806 0.0213v1e-3c0.8201 1e-3 1.6401-3e-3 2.4602-4e-3 4.3248-0.0311 8.6511-0.0713 12.982-0.0631 1.3902 1.6e-4 2.5518-1e-3 3.9419 5e-3 2.8377 0.0123 5.6745 0.0377 8.5147 0.0326 0.6478-3e-3 3.7696-0.0151 4.4407-0.0156 2.9217-2e-3 5.8441 0.0246 8.7659 5e-3 1.4384-8e-3 2.8773-0.0131 4.3151-0.0234 0.6829-5e-3 1.3641-0.0147 2.0473-0.0185 1.3414-7e-3 2.686-8e-3 4.027-0.0192zm-35.075 7.1e-4c0.2176 3e-3 0.436 3e-3 0.6535 6e-3 1.907 0.0255 3.8134 0.0377 5.7245 0.0539 1.4855 0.0127 2.9704 0.0286 4.4564 0.0397 0.818 6e-3 1.6367 9e-3 2.4552 0.0142v-7.1e-4c1.9483 8.6e-4 3.1751 6e-3 5.1227-0.0121 2.8189-0.026 5.618-0.10398 8.4494-0.0972 0.5556-1e-3 1.1113-3e-3 1.6669-4e-3z" stroke-width="1.4021"/><path d="m1216.4 149.92c-2.8117 0.0186-5.6236 0.0355-8.4295 0.0717-1.4407 0.01-2.8773 0.0377-4.3187 0.0447-0.4459 2e-3 -0.8923-3e-3 -1.3383-7.1e-4 -0.4217 2e-3 -0.8427 0.0112-1.2646 0.0106-0.4561-4.3e-4 -0.9101-9e-3 -1.3653-0.0142-2.6781-0.0301-5.3585 0.012-7.9995 0.0802-0.7954 0.0167-1.2871 0.0297-2.0869 0.0362-0.3769 3e-3 -0.7554-1e-3 -1.1319 3e-3 -1.1079 0.0121-2.2092 0.0488-3.3004 0.0795-2.0135 0.0533-4.0328 0.10403-6.0615 0.14051-1.1522 0.0151-2.3067 0.0177-3.4608 0.0227-0.096 0.0471-0.2134 0.0812-0.3583 0.093-0.3185 0.0258-0.6367 0.056-0.9559 0.0731-0.4582 0.0237-0.9172 0.0318-1.3752-4e-3 -0.4434-0.028-0.8856-0.0675-1.3277-0.10999-0.033 6.5e-4 -0.067 1e-3 -0.1008 2e-3 -0.6923 0.0149-1.3835 0.0129-2.0699 7.1e-4 -0.6864-0.0113-1.3678-0.0333-2.0423-0.0589-0.8116-0.0307-1.6011-0.0751-2.4148-0.10432-1.5078-0.0541-2.4763-0.0694-3.5907-0.0901-0.084 2e-3 -0.1684 2e-3 -0.2526 6e-3 -0.152 8e-3 -0.3042 0.0218-0.4563 0.0248-0.095 2e-3 -0.1785-8e-3 -0.254-0.0248v1.3121c0.043-8e-3 0.085-0.0156 0.127-0.0248 0.065-0.0148 0.1309-0.0273 0.1959-0.039 0.085-0.0152 0.1634-0.0205 0.2349-0.0185 0.2779 9e-3 0.4526 0.13858 0.5095 0.29946h0.1731c0.1379-2e-3 0.276-3e-3 0.4137-6e-3 0.2843-5e-3 0.5647-0.0158 0.8508-0.0177 0.2391-2e-3 0.4774 6e-3 0.716 9e-3 0.8306 0.01 1.6623 0.0179 2.4958 0.0121 0.5799-1e-5 1.1594-6e-3 1.7392-4e-3 0.5011 9.9e-4 1.0028 5e-3 1.5044 9e-3h0.7054c0.4746 8.6e-4 0.9492 3e-3 1.4234-6e-3 1.3213-3e-3 2.641 2e-3 3.9611 6e-3h2.1288c0.9493-9e-3 1.9025-0.0203 2.852-0.0185 0.7751 2e-3 1.5499 0.0109 2.3247 0.0185h11.32c1.518-0.0124 3.036-0.0204 4.5565-3e-3 0.3869-4.3e-4 0.7739-1e-3 1.1609-2e-3 0.3824 8.7e-4 0.7649 4e-3 1.1474 4e-3 1.4041-8.7e-4 2.8094-0.0114 4.213 7.1e-4h5.0305c-0.4549 1e-3 -1.4932 5e-3 1.4483-0.0199 0.3445-3e-3 0.6897-1.3e-4 1.0346-7.1e-4 1.2315 4.3e-4 2.461 9e-3 3.6879 0.022h46.896c1.7267-5e-3 3.4529-0.0143 5.1809-0.0142 1.2213 4.3e-4 2.4413 9e-3 3.6616 0.0142h7.3303c1.8881-0.0114 3.7751-0.0279 5.6599-0.0518 0.5034-7e-3 1.0064-0.0164 1.5108-0.0206 1.0687-9e-3 1.7802-3e-3 2.8505-4e-3 1.5071-4.4e-4 3.0141-5.5e-4 4.521-4e-3 1.4713-0.011 2.942-0.0243 4.4152-0.0263 1.4537-2e-3 1.4405 1e-3 2.9101 6e-3 0.5212 2e-3 1.0426 3e-3 1.564 4e-3 1.6689 0.0104 3.3358 0.0177 5.0056 0.0234 0.082 2.8e-4 0.1637 3.5e-4 0.2455 7.1e-4 -0.4678-0.4163-0.6609-0.93641-0.5889-1.427-2.035-0.0198-4.0724-0.0298-6.1084-0.0475-1.8462-0.018-3.7053-0.01-5.5506-0.0291-0.6332-7e-3 -1.2623-0.0204-1.894-0.0298-1.617-0.024-2.2158-0.0307-3.8354-0.0504-2.9977-0.0401-6.0163-0.0276-9.0128-0.0695-0.6644-9e-3 -1.3256-0.0237-1.9884-0.0355-3.8804-0.0331-7.7741-0.0156-11.655 9e-3 -2.0112 0.0169-4.0211 0.0374-6.0345 0.0461-0.4506 2e-3 -0.9011 6e-3 -1.3518 5e-3 -0.4808-1e-3 -0.9605-8e-3 -1.4406-0.0121-2.0685-0.0105-4.1396-0.0267-6.2098-0.0177-0.9689 4e-3 -1.9367 0.0145-2.9052 0.0206-2.6996 4e-3 -5.4149 0.0238-8.1123 4e-3 -1.4974-0.014-2.9989-0.0212-4.4989-0.0156-1.473 5e-3 -1.3723 0.0155-2.8328 0.0149-0.4817-1.6e-4 -0.9632-4e-3 -1.4448-6e-3 -1.2223-0.0152-2.1781-0.0244-3.4068-0.0497-0.723-0.0149-1.4381-0.0394-2.1629-0.0518zm227.13 1.679c-0.5964 0.0246-1.1926 0.0543-1.7889 0.0795 0.5845 0.0173 1.1653 0.0385 1.7534 0.0525 0.015-0.0439 0.017-0.0886 0.035-0.13199z" stroke-width="1.4021"/></g></svg>
